<svg width="15.000000" height="13.333252" viewBox="0 0 15 13.3333" fill="none" xmlns="http://www.w3.org/2000/svg" xmlns:xlink="http://www.w3.org/1999/xlink">
	<desc>
			Created with Pixso.
	</desc>
	<defs/>
	<path id="Vector" d="M7.74 0.24C7.41 0.56 7.41 1.09 7.74 1.42L12.15 5.83L0.83 5.83C0.37 5.83 0 6.2 0 6.66C0 7.12 0.37 7.5 0.83 7.5L12.15 7.5L7.74 11.91C7.41 12.23 7.41 12.76 7.74 13.08C8.06 13.41 8.59 13.41 8.92 13.08L14.75 7.25C14.91 7.09 15 6.88 15 6.66C15 6.44 14.91 6.23 14.75 6.07L8.92 0.24C8.59 -0.09 8.06 -0.09 7.74 0.24Z" fill="#000000" fill-opacity="1.000000" fill-rule="evenodd"/>
</svg>
