<svg width="14.583344" height="17.916656" viewBox="0 0 14.5833 17.9167" fill="none" xmlns="http://www.w3.org/2000/svg" xmlns:xlink="http://www.w3.org/1999/xlink">
	<desc>
			Created with Pixso.
	</desc>
	<defs/>
	<path id="Vector" d="M0 7.41C0 3.32 3.25 0 7.29 0C11.32 0 14.58 3.32 14.58 7.41C14.58 9.38 14.02 11.49 13.02 13.32C12.03 15.15 10.58 16.73 8.77 17.58C7.83 18.02 6.74 18.02 5.8 17.58C3.99 16.73 2.54 15.15 1.55 13.32C0.56 11.49 0 9.38 0 7.41ZM7.29 1.25C3.96 1.25 1.25 3.99 1.25 7.41C1.25 9.15 1.75 11.07 2.65 12.73C3.55 14.39 4.83 15.74 6.33 16.45C6.94 16.73 7.63 16.73 8.24 16.45C9.75 15.74 11.02 14.39 11.93 12.73C12.83 11.07 13.33 9.15 13.33 7.41C13.33 3.99 10.61 1.25 7.29 1.25ZM7.29 5.41C6.25 5.41 5.41 6.25 5.41 7.29C5.41 8.32 6.25 9.16 7.29 9.16C8.32 9.16 9.16 8.32 9.16 7.29C9.16 6.25 8.32 5.41 7.29 5.41ZM4.16 7.29C4.16 5.56 5.56 4.16 7.29 4.16C9.01 4.16 10.41 5.56 10.41 7.29C10.41 9.01 9.01 10.41 7.29 10.41C5.56 10.41 4.16 9.01 4.16 7.29Z" fill="#FFFFFF" fill-opacity="1.000000" fill-rule="evenodd"/>
</svg>
