<svg width="20.000000" height="20.000000" viewBox="0 0 20 20" fill="none" xmlns="http://www.w3.org/2000/svg" xmlns:xlink="http://www.w3.org/1999/xlink">
	<desc>
			Created with Pixso.
	</desc>
	<defs>
		<clipPath id="clip4_30">
			<rect id="phone_svgrepo.com" rx="0.000000" width="19.666666" height="19.666666" transform="translate(0.166667 0.166667)" fill="white" fill-opacity="0"/>
		</clipPath>
	</defs>
	<rect id="phone_svgrepo.com" rx="0.000000" width="19.666666" height="19.666666" transform="translate(0.166667 0.166667)" fill="#FFFFFF" fill-opacity="0"/>
	<g clip-path="url(#clip4_30)">
		<path id="Vector" d="M13.85 11.57L14.23 11.19L13.35 10.31L12.97 10.68L13.85 11.57ZM15.51 11.04L17.1 11.9L17.7 10.8L16.1 9.94L15.51 11.04ZM17.41 13.62L16.22 14.8L17.1 15.68L18.29 14.51L17.41 13.62ZM15.5 15.18C14.29 15.29 11.17 15.19 7.78 11.82L6.9 12.71C10.59 16.38 14.11 16.56 15.62 16.42L15.5 15.18ZM7.78 11.82C4.56 8.62 4.02 5.92 3.95 4.75L2.71 4.82C2.79 6.29 3.45 9.28 6.9 12.71L7.78 11.82ZM8.93 6.67L9.17 6.44L8.29 5.55L8.05 5.79L8.93 6.67ZM9.36 3.41L8.31 2L7.31 2.75L8.36 4.16L9.36 3.41ZM4.77 1.7L3.46 3L4.35 3.88L5.65 2.58L4.77 1.7ZM8.49 6.23C8.05 5.79 8.05 5.79 8.05 5.79C8.05 5.79 8.04 5.79 8.04 5.79C8.04 5.79 8.04 5.79 8.04 5.79C8.04 5.79 8.04 5.8 8.04 5.8C8.03 5.8 8.03 5.81 8.02 5.81C8.02 5.82 8.01 5.83 8 5.84C7.98 5.86 7.96 5.89 7.94 5.92C7.89 5.99 7.84 6.08 7.8 6.19C7.71 6.41 7.67 6.71 7.73 7.08C7.84 7.8 8.33 8.75 9.61 10.02L10.49 9.13C9.3 7.95 9.01 7.23 8.96 6.89C8.94 6.73 8.96 6.65 8.97 6.63C8.97 6.62 8.98 6.62 8.97 6.62C8.97 6.63 8.96 6.63 8.96 6.64C8.95 6.65 8.95 6.65 8.94 6.66C8.94 6.66 8.94 6.66 8.94 6.66C8.94 6.67 8.93 6.67 8.93 6.67C8.93 6.67 8.93 6.67 8.93 6.67C8.93 6.67 8.93 6.67 8.93 6.67C8.93 6.67 8.93 6.67 8.49 6.23ZM9.61 10.02C10.88 11.28 11.84 11.78 12.56 11.89C12.93 11.94 13.23 11.9 13.45 11.82C13.56 11.77 13.65 11.73 13.72 11.68C13.75 11.66 13.78 11.64 13.8 11.62C13.81 11.61 13.82 11.6 13.83 11.59C13.83 11.59 13.84 11.58 13.84 11.58C13.84 11.58 13.85 11.58 13.85 11.58C13.85 11.57 13.85 11.57 13.85 11.57C13.85 11.57 13.85 11.57 13.85 11.57C13.85 11.57 13.85 11.57 13.41 11.13C12.97 10.68 12.97 10.68 12.97 10.68C12.97 10.68 12.97 10.68 12.97 10.68C12.97 10.68 12.98 10.68 12.98 10.68C12.98 10.68 12.98 10.68 12.98 10.68C12.98 10.67 12.99 10.67 12.99 10.67C12.99 10.66 13 10.66 13 10.66C13.01 10.65 13.02 10.64 13.02 10.64C13.03 10.64 13.03 10.64 13.01 10.64C12.99 10.65 12.91 10.68 12.75 10.65C12.4 10.6 11.68 10.32 10.49 9.13L9.61 10.02ZM8.31 2C7.46 0.87 5.79 0.69 4.77 1.7L5.65 2.58C6.1 2.14 6.88 2.19 7.31 2.75L8.31 2ZM3.95 4.75C3.94 4.46 4.07 4.16 4.35 3.88L3.46 3C3.02 3.44 2.66 4.07 2.71 4.82L3.95 4.75ZM16.22 14.8C15.99 15.03 15.75 15.15 15.5 15.18L15.62 16.42C16.23 16.36 16.73 16.06 17.1 15.68L16.22 14.8ZM9.17 6.44C9.99 5.62 10.05 4.33 9.36 3.41L8.36 4.16C8.69 4.6 8.64 5.19 8.29 5.55L9.17 6.44ZM17.1 11.9C17.78 12.27 17.89 13.14 17.41 13.62L18.29 14.51C19.4 13.4 19.06 11.54 17.7 10.8L17.1 11.9ZM14.23 11.19C14.55 10.88 15.07 10.8 15.51 11.04L16.1 9.94C15.2 9.45 14.08 9.58 13.35 10.31L14.23 11.19Z" fill="#FFFFFF" fill-opacity="1.000000" fill-rule="nonzero"/>
	</g>
</svg>
