<svg width="22.903931" height="19.275879" viewBox="0 0 22.9039 19.2759" fill="none" xmlns="http://www.w3.org/2000/svg" xmlns:xlink="http://www.w3.org/1999/xlink">
	<desc>
			Created with Pixso.
	</desc>
	<defs/>
	<path id="Vector" d="M21.43 0.15L1.06 8.03C-0.32 8.53 -0.32 9.4 0.81 9.65L5.93 11.28L7.93 17.28C8.18 17.9 8.06 18.15 8.68 18.15C9.18 18.15 9.43 17.9 9.68 17.65C9.81 17.53 10.93 16.4 12.18 15.15L17.43 19.03C18.43 19.53 19.06 19.28 19.31 18.15L22.81 1.78C23.18 0.4 22.31 -0.35 21.43 0.15ZM18.81 3.9L9.06 12.78L8.68 16.9L6.68 10.9L18.18 3.65C18.68 3.28 19.18 3.53 18.81 3.9Z" fill="#ACACAC" fill-opacity="1.000000" fill-rule="nonzero"/>
</svg>
