<svg width="26.000000" height="15.000000" viewBox="0 0 26 15" fill="none" xmlns="http://www.w3.org/2000/svg" xmlns:xlink="http://www.w3.org/1999/xlink">
	<desc>
			Created with Pixso.
	</desc>
	<defs/>
	<path id="Vector" d="M15.74 7.21C15.26 7.03 15.26 6.36 15.23 5.88C15.12 4.2 15.71 1.64 15 0.55C14.49 -0.1 12.05 -0.04 10.57 0.05C10.15 0.11 9.65 0.2 9.29 0.37C8.93 0.55 8.58 0.85 8.58 1.11C8.58 1.49 9.47 1.43 9.8 1.93C10.15 2.47 10.15 3.62 10.15 4.56C10.15 5.65 9.97 7.09 9.53 7.15C8.85 7.18 8.46 6.5 8.1 6C7.39 5.03 6.68 3.82 6.14 2.64C5.87 2.02 5.72 1.34 5.34 1.08C4.74 0.67 3.67 0.64 2.63 0.67C1.68 0.7 0.32 0.58 0.05 1.14C-0.16 1.76 0.29 2.35 0.52 2.85C1.74 5.47 3.05 7.77 4.65 9.95C6.14 11.98 7.54 13.61 10.27 14.46C11.04 14.7 14.43 15.37 15.11 14.46C15.35 14.11 15.29 13.31 15.41 12.72C15.53 12.13 15.68 11.54 16.24 11.51C16.72 11.48 16.99 11.9 17.28 12.19C17.61 12.52 17.88 12.78 18.12 13.08C18.68 13.64 19.28 14.4 19.99 14.7C20.97 15.11 22.48 14.99 23.91 14.93C25.07 14.9 25.9 14.67 25.99 13.99C26.05 13.46 25.46 12.69 25.1 12.25C24.21 11.16 23.79 10.84 22.78 9.83C22.33 9.39 21.77 8.92 21.77 8.39C21.74 8.06 22.01 7.77 22.25 7.45C23.29 5.91 24.33 4.82 25.28 3.23C25.54 2.76 26.17 1.67 25.93 1.14C25.66 0.55 24.18 0.72 23.26 0.72C22.07 0.72 20.52 0.64 20.22 0.87C19.66 1.26 19.42 1.87 19.16 2.46C18.56 3.82 17.76 5.2 16.93 6.24C16.63 6.59 16.06 7.33 15.74 7.21L15.74 7.21Z" fill="#ACACAC" fill-opacity="1.000000" fill-rule="nonzero"/>
</svg>
