<svg width="22.395874" height="21.875046" viewBox="0 0 22.3959 21.875" fill="none" xmlns="http://www.w3.org/2000/svg" xmlns:xlink="http://www.w3.org/1999/xlink">
	<desc>
			Created with Pixso.
	</desc>
	<defs/>
	<path id="Vector" d="M2.6 10.93C2.6 6.04 6.56 2.08 11.45 2.08C16.34 2.08 20.31 6.04 20.31 10.93C20.31 15.82 16.34 19.79 11.45 19.79C9.71 19.79 8.09 19.28 6.72 18.42C6.47 18.26 6.16 18.21 5.87 18.3L2.87 19.19L4 16.55C4.13 16.24 4.1 15.88 3.92 15.59C3.08 14.24 2.6 12.64 2.6 10.93ZM11.45 0C5.41 0 0.52 4.89 0.52 10.93C0.52 12.85 1.01 14.65 1.87 16.22L0.08 20.42C-0.08 20.79 -0.01 21.22 0.26 21.52C0.53 21.82 0.95 21.94 1.33 21.83L6.02 20.43C7.62 21.35 9.48 21.87 11.45 21.87C17.49 21.87 22.39 16.97 22.39 10.93C22.39 4.89 17.49 0 11.45 0ZM13.84 13.21L12.47 14.17C11.83 13.8 11.12 13.3 10.41 12.58C9.67 11.84 9.12 11.08 8.72 10.38L9.59 9.64C9.96 9.33 10.07 8.79 9.84 8.36L8.73 6.28C8.58 6 8.31 5.8 8 5.74C7.68 5.68 7.36 5.77 7.12 5.98L6.79 6.27C6 6.96 5.54 8.09 5.92 9.24C6.33 10.43 7.18 12.3 8.94 14.06C10.83 15.95 12.75 16.69 13.87 16.98C14.77 17.21 15.63 16.9 16.23 16.41L16.85 15.91C17.11 15.69 17.25 15.36 17.23 15.02C17.2 14.68 17.01 14.38 16.72 14.2L14.97 13.16C14.62 12.95 14.18 12.97 13.84 13.21Z" fill="#FFFFFF" fill-opacity="1.000000" fill-rule="evenodd"/>
</svg>
