<svg width="17.000000" height="16.127380" viewBox="0 0 17 16.1274" fill="none" xmlns="http://www.w3.org/2000/svg" xmlns:xlink="http://www.w3.org/1999/xlink">
	<desc>
			Created with Pixso.
	</desc>
	<defs/>
	<path id="Vector" d="M11.66 11.01L12.06 10.62L11.13 9.69L10.74 10.09L11.66 11.01ZM13.39 10.45L15.05 11.36L15.68 10.21L14.01 9.31L13.39 10.45ZM15.37 13.16L14.14 14.39L15.06 15.32L16.3 14.09L15.37 13.16ZM13.38 14.79C12.12 14.91 8.85 14.8 5.31 11.28L4.39 12.21C8.25 16.05 11.93 16.24 13.5 16.09L13.38 14.79ZM5.31 11.28C1.93 7.92 1.37 5.1 1.3 3.88L0 3.95C0.09 5.49 0.78 8.62 4.39 12.21L5.31 11.28ZM6.51 5.89L6.76 5.64L5.83 4.72L5.58 4.96L6.51 5.89ZM6.96 2.47L5.86 1.01L4.81 1.79L5.91 3.26L6.96 2.47ZM2.16 0.69L0.79 2.05L1.71 2.97L3.08 1.61L2.16 0.69ZM6.05 5.43C5.58 4.96 5.58 4.97 5.58 4.97C5.58 4.97 5.58 4.97 5.58 4.97C5.58 4.97 5.58 4.97 5.58 4.97C5.58 4.97 5.58 4.97 5.57 4.98C5.57 4.98 5.57 4.98 5.56 4.99C5.55 5 5.54 5.01 5.53 5.02C5.51 5.04 5.49 5.07 5.47 5.11C5.42 5.18 5.37 5.27 5.33 5.38C5.24 5.62 5.19 5.93 5.25 6.32C5.37 7.07 5.89 8.07 7.22 9.39L8.14 8.46C6.89 7.23 6.6 6.47 6.54 6.12C6.52 5.95 6.54 5.87 6.55 5.85C6.55 5.83 6.56 5.83 6.55 5.84C6.55 5.84 6.54 5.85 6.54 5.86C6.53 5.86 6.53 5.87 6.52 5.87C6.52 5.88 6.52 5.88 6.52 5.88C6.51 5.88 6.51 5.89 6.51 5.89C6.51 5.89 6.51 5.89 6.51 5.89C6.51 5.89 6.51 5.89 6.51 5.89C6.51 5.89 6.51 5.89 6.05 5.43ZM7.22 9.39C8.55 10.72 9.55 11.23 10.3 11.35C10.69 11.41 11 11.36 11.24 11.27C11.35 11.23 11.45 11.18 11.52 11.13C11.55 11.11 11.58 11.08 11.6 11.06C11.62 11.05 11.63 11.05 11.63 11.04C11.64 11.03 11.64 11.03 11.65 11.03C11.65 11.02 11.65 11.02 11.65 11.02C11.65 11.02 11.66 11.02 11.66 11.02C11.66 11.02 11.66 11.02 11.66 11.02C11.66 11.02 11.66 11.01 11.2 10.55C10.74 10.09 10.74 10.09 10.74 10.09C10.74 10.09 10.74 10.09 10.74 10.09C10.74 10.08 10.74 10.08 10.74 10.08C10.74 10.08 10.74 10.08 10.75 10.08C10.75 10.08 10.75 10.07 10.75 10.07C10.76 10.07 10.76 10.06 10.77 10.06C10.78 10.05 10.78 10.05 10.79 10.04C10.8 10.04 10.79 10.04 10.78 10.05C10.76 10.05 10.67 10.08 10.5 10.05C10.14 10 9.38 9.7 8.14 8.46L7.22 9.39ZM5.86 1.01C4.97 -0.18 3.22 -0.37 2.16 0.69L3.08 1.61C3.54 1.15 4.37 1.2 4.81 1.79L5.86 1.01ZM1.3 3.88C1.29 3.58 1.43 3.26 1.71 2.97L0.79 2.05C0.32 2.51 -0.05 3.17 0 3.95L1.3 3.88ZM14.14 14.39C13.9 14.63 13.64 14.76 13.38 14.79L13.5 16.09C14.14 16.03 14.67 15.71 15.06 15.32L14.14 14.39ZM6.76 5.64C7.62 4.79 7.68 3.44 6.96 2.47L5.91 3.26C6.26 3.73 6.21 4.34 5.83 4.72L6.76 5.64ZM15.05 11.36C15.77 11.75 15.88 12.66 15.37 13.16L16.3 14.09C17.47 12.93 17.11 10.99 15.68 10.21L15.05 11.36ZM12.06 10.62C12.39 10.29 12.93 10.2 13.39 10.45L14.01 9.31C13.07 8.79 11.9 8.93 11.13 9.69L12.06 10.62Z" fill="#373737" fill-opacity="1.000000" fill-rule="nonzero"/>
</svg>
